<?xml version="1.0" standalone="no"?>
<!DOCTYPE svg PUBLIC "-//W3C//DTD SVG 20010904//EN"
 "http://www.w3.org/TR/2001/REC-SVG-20010904/DTD/svg10.dtd">
<svg version="1.0" xmlns="http://www.w3.org/2000/svg"
 width="50.000000pt" height="50.000000pt" viewBox="0 0 50.000000 50.000000"
 preserveAspectRatio="xMidYMid meet">
<metadata>
Created by potrace 1.14, written by Peter Selinger 2001-2017
</metadata>
<g transform="translate(0.000000,50.000000) scale(0.100000,-0.100000)"
fill="#000000" stroke="none">
<path d="M0 250 l0 -250 250 0 250 0 0 250 0 250 -250 0 -250 0 0 -250z m334
145 c29 -20 56 -69 56 -104 0 -13 -9 -21 -30 -26 -36 -8 -80 -41 -80 -61 0 -9
-11 -14 -29 -14 -16 0 -34 -7 -42 -16 -20 -25 -65 -44 -102 -44 -31 0 -35 4
-41 32 -7 38 -4 43 22 29 25 -13 95 -15 88 -2 -3 5 4 11 15 14 17 5 19 9 10
25 -8 14 -27 23 -63 29 -50 8 -53 10 -56 40 -4 42 31 110 60 116 51 11 164 0
192 -18z m-209 -155 c17 -7 14 -9 -13 -9 -20 -1 -31 3 -27 9 7 12 13 12 40 0z
m10 -40 c3 -5 1 -10 -4 -10 -6 0 -11 5 -11 10 0 6 2 10 4 10 3 0 8 -4 11 -10z
m200 0 c3 -5 1 -10 -4 -10 -6 0 -11 5 -11 10 0 6 2 10 4 10 3 0 8 -4 11 -10z
m16 -26 c46 -15 68 -44 34 -44 -21 0 -68 25 -84 44 -17 20 -12 20 50 0z"/>
</g>
</svg>
