<?xml version="1.0" standalone="no"?>
<!DOCTYPE svg PUBLIC "-//W3C//DTD SVG 20010904//EN"
 "http://www.w3.org/TR/2001/REC-SVG-20010904/DTD/svg10.dtd">
<svg version="1.0" xmlns="http://www.w3.org/2000/svg"
 width="50.000000pt" height="50.000000pt" viewBox="0 0 50.000000 50.000000"
 preserveAspectRatio="xMidYMid meet">
<metadata>
Created by potrace 1.14, written by Peter Selinger 2001-2017
</metadata>
<g transform="translate(0.000000,50.000000) scale(0.100000,-0.100000)"
fill="#000000" stroke="none">
<path d="M0 250 l0 -250 250 0 250 0 0 250 0 250 -250 0 -250 0 0 -250z m315
159 c17 -8 35 -21 42 -29 9 -12 6 -17 -15 -27 -16 -7 -18 -11 -7 -8 11 2 27 0
35 -5 11 -7 4 -10 -25 -10 -27 0 -36 -3 -26 -9 8 -5 21 -7 29 -3 10 3 13 1 8
-6 -4 -6 3 -12 16 -14 21 -3 23 -8 20 -48 -2 -24 -10 -56 -17 -71 -20 -38 -82
-89 -109 -89 -35 0 -102 74 -116 128 -11 45 -6 87 11 77 5 -4 9 -1 9 4 0 6 12
11 26 11 16 0 23 4 18 11 -3 6 -19 9 -35 7 -16 -3 -29 -1 -29 4 0 4 10 8 23 9
l22 0 -22 9 c-20 8 -21 12 -12 40 6 17 23 37 38 44 27 15 29 14 116 -25z"/>
<path d="M253 163 c9 -2 25 -2 35 0 9 3 1 5 -18 5 -19 0 -27 -2 -17 -5z"/>
</g>
</svg>
