<?xml version="1.0" standalone="no"?>
<!DOCTYPE svg PUBLIC "-//W3C//DTD SVG 20010904//EN"
 "http://www.w3.org/TR/2001/REC-SVG-20010904/DTD/svg10.dtd">
<svg version="1.0" xmlns="http://www.w3.org/2000/svg"
 width="50.000000pt" height="50.000000pt" viewBox="0 0 50.000000 50.000000"
 preserveAspectRatio="xMidYMid meet">
<metadata>
Created by potrace 1.14, written by Peter Selinger 2001-2017
</metadata>
<g transform="translate(0.000000,50.000000) scale(0.100000,-0.100000)"
fill="#000000" stroke="none">
<path d="M45 468 c-27 -46 -45 -179 -45 -335 l0 -133 53 0 c56 0 79 14 107 69
l12 23 14 -28 c21 -40 21 -40 22 10 1 32 8 51 25 70 l24 26 7 -39 c3 -21 3
-60 0 -85 l-7 -46 67 0 c39 0 66 4 66 10 0 6 -7 27 -16 48 -9 20 -16 60 -15
87 1 64 -11 85 -28 49 -10 -22 -16 -25 -39 -19 -15 3 -31 10 -36 15 -11 11
-11 65 0 82 5 7 9 20 9 29 1 8 10 26 19 40 15 20 17 20 12 4 -5 -18 -4 -17 14
4 22 25 28 67 8 55 -7 -5 -8 -3 -4 5 5 7 10 10 13 7 8 -8 53 50 53 68 0 14
-20 16 -158 16 l-158 0 -19 -32z m301 -16 c-17 -16 -18 -16 -5 5 7 12 15 20
18 17 3 -2 -3 -12 -13 -22z m-149 -194 c-3 -7 -5 -2 -5 12 0 14 2 19 5 13 2
-7 2 -19 0 -25z"/>
<path d="M367 384 c-4 -4 -7 -14 -7 -23 0 -11 3 -12 11 -4 6 6 10 16 7 23 -2
6 -7 8 -11 4z"/>
</g>
</svg>
