<?xml version="1.0" standalone="no"?>
<!DOCTYPE svg PUBLIC "-//W3C//DTD SVG 20010904//EN"
 "http://www.w3.org/TR/2001/REC-SVG-20010904/DTD/svg10.dtd">
<svg version="1.0" xmlns="http://www.w3.org/2000/svg"
 width="50.000000pt" height="50.000000pt" viewBox="0 0 50.000000 50.000000"
 preserveAspectRatio="xMidYMid meet">
<metadata>
Created by potrace 1.14, written by Peter Selinger 2001-2017
</metadata>
<g transform="translate(0.000000,50.000000) scale(0.100000,-0.100000)"
fill="#000000" stroke="none">
<path d="M201 474 c-12 -15 -21 -34 -20 -43 0 -13 1 -14 6 -1 3 8 15 27 25 43
25 35 16 35 -11 1z"/>
<path d="M229 468 c-13 -17 -18 -28 -11 -24 8 4 12 1 12 -11 0 -14 3 -13 13 6
6 14 18 26 26 29 10 3 9 -4 -5 -27 -10 -17 -22 -31 -26 -31 -4 0 -8 -7 -8 -17
0 -9 -3 -13 -7 -10 -3 4 -12 2 -20 -4 -10 -9 -13 -8 -13 5 0 9 -4 16 -10 16
-5 0 -10 -9 -10 -20 0 -14 -6 -20 -17 -18 -10 2 -22 -7 -30 -22 -7 -14 -13
-20 -14 -15 0 6 -7 -3 -14 -20 -12 -24 -14 -26 -16 -10 -1 11 0 25 1 30 9 42
10 78 1 70 -5 -6 -11 -23 -13 -40 -2 -17 -8 -29 -16 -28 -16 4 -15 -26 3 -60
8 -15 17 -45 21 -65 8 -49 50 -113 68 -106 8 3 23 -3 34 -14 20 -20 20 -20 25
4 3 15 -3 34 -15 49 -11 14 -20 43 -21 67 -2 40 0 42 33 52 19 5 40 15 45 22
13 15 48 27 40 14 -3 -6 3 -10 14 -10 12 0 21 -5 21 -10 0 -6 8 -10 18 -8 14
3 17 -5 18 -52 0 -30 -5 -64 -12 -74 -8 -11 -11 -29 -8 -41 13 -52 -81 -98
-120 -59 -16 16 -21 8 -10 -20 8 -22 77 -21 112 1 32 20 72 62 72 76 0 5 7 7
15 3 9 -3 15 0 15 10 0 8 15 21 33 29 17 8 26 14 20 15 -9 0 -12 22 -11 78 2
69 -1 81 -25 117 -30 44 -35 34 -12 -22 8 -19 15 -47 14 -62 0 -21 -4 -17 -15
19 -21 61 -55 133 -68 142 -6 4 -12 12 -12 18 -1 5 -2 14 -3 19 -2 20 -34 41
-61 41 -21 0 -35 -9 -51 -32z m68 0 c-3 -8 -6 -5 -6 6 -1 11 2 17 5 13 3 -3 4
-12 1 -19z m47 -49 c15 -11 -3 -99 -21 -99 -9 0 -13 6 -10 14 10 25 -6 28 -21
4 -7 -13 -11 -15 -8 -6 5 17 -12 41 -36 51 -9 4 -4 14 15 31 16 15 33 24 38
21 5 -4 9 4 10 17 l0 23 12 -25 c6 -14 16 -28 21 -31z m54 -310 c-16 -10 -33
5 -23 21 5 8 11 8 21 -1 12 -10 12 -14 2 -20z"/>
<path d="M149 453 c-13 -16 -12 -17 4 -4 9 7 17 15 17 17 0 8 -8 3 -21 -13z"/>
</g>
</svg>
