<?xml version="1.0" standalone="no"?>
<!DOCTYPE svg PUBLIC "-//W3C//DTD SVG 20010904//EN"
 "http://www.w3.org/TR/2001/REC-SVG-20010904/DTD/svg10.dtd">
<svg version="1.0" xmlns="http://www.w3.org/2000/svg"
 width="240.000000pt" height="240.000000pt" viewBox="0 0 240.000000 240.000000"
 preserveAspectRatio="xMidYMid meet">
<metadata>
Created by potrace 1.14, written by Peter Selinger 2001-2017
</metadata>
<g transform="translate(0.000000,240.000000) scale(0.100000,-0.100000)"
fill="#000000" stroke="none">
<path d="M0 2205 c0 -188 1 -195 20 -195 17 0 20 7 20 43 0 31 5 45 19 54 13
8 19 23 19 49 0 20 4 39 9 43 5 3 10 24 10 45 0 25 7 44 18 52 10 8 17 29 19
58 l3 46 -69 0 -68 0 0 -195z"/>
<path d="M413 2355 c-32 -50 -40 -54 -46 -22 -3 12 -5 2 -5 -23 0 -60 -27
-196 -47 -244 -9 -21 -14 -48 -12 -58 5 -17 -1 -46 -20 -98 -9 -25 -16 -102
-15 -165 2 -124 20 -311 33 -340 9 -21 13 -98 15 -260 1 -127 7 -246 13 -265
6 -19 12 -53 12 -75 l2 -40 7 40 c7 38 7 37 9 -20 1 -33 8 -105 16 -160 8 -55
15 -103 15 -107 0 -5 5 -8 11 -8 7 0 8 7 4 18 -11 28 -15 113 -6 108 5 -3 14
-27 19 -53 36 -166 46 -204 54 -209 11 -7 10 19 -7 111 -14 78 -21 224 -10
213 3 -3 15 -59 25 -124 11 -66 24 -139 29 -164 10 -49 66 -176 79 -182 5 -2
12 -15 16 -30 6 -25 1 -31 -63 -72 -39 -25 -82 -59 -97 -76 -15 -17 -34 -28
-40 -26 -8 3 -11 -1 -7 -10 4 -12 59 -14 354 -14 348 0 349 0 349 21 0 12 14
34 31 50 19 18 30 37 29 51 -3 38 -1 43 15 22 14 -19 14 -19 16 1 1 11 3 35 5
53 5 41 -25 103 -61 126 -26 17 -29 17 -99 -12 -84 -35 -217 -67 -240 -59 -9
4 -16 14 -16 22 0 9 5 13 10 10 14 -9 13 77 -2 125 -7 22 -16 40 -19 40 -4 0
-5 8 -2 19 3 10 -2 32 -10 47 -19 38 -34 169 -16 139 7 -11 19 -26 26 -33 7
-7 13 -18 13 -23 0 -5 6 -9 14 -9 7 0 19 -7 26 -15 34 -41 44 8 15 71 -13 27
-21 52 -18 56 2 5 -24 65 -57 134 -48 96 -63 140 -67 185 -6 62 10 119 32 119
7 0 18 7 25 15 7 8 22 15 35 15 12 0 35 6 51 14 16 8 52 16 79 17 62 2 135 18
135 30 0 5 9 9 19 9 26 0 35 29 16 50 -8 9 -15 21 -15 26 0 6 -18 21 -41 33
-32 19 -62 25 -136 28 -88 5 -95 4 -100 -15 -3 -11 -16 -23 -29 -26 -14 -4
-28 -16 -32 -27 -7 -17 -10 -18 -20 -7 -6 8 -14 32 -18 54 -11 73 39 83 225
44 59 -13 83 -8 75 14 -8 21 -78 35 -182 37 -51 1 -95 5 -98 11 -14 22 9 92
41 122 19 18 36 46 40 66 4 19 13 49 20 65 7 17 21 54 30 83 18 57 91 140 108
123 10 -10 51 -1 88 20 26 14 30 16 57 18 11 1 8 6 -13 15 -29 13 -27 13 50
21 44 4 73 10 65 13 -23 8 70 32 125 32 36 0 46 -3 35 -10 -8 -5 -27 -10 -42
-10 -15 0 -29 -4 -33 -9 -8 -14 28 -22 89 -20 42 2 61 -2 76 -16 11 -10 17
-21 14 -26 -4 -7 8 -100 22 -167 3 -13 20 -38 40 -56 l34 -31 -42 -35 c-67
-56 -174 -163 -181 -183 -4 -10 -11 -15 -17 -12 -16 10 -31 -42 -32 -114 -2
-97 20 -281 38 -319 10 -22 14 -46 10 -67 -5 -27 -3 -36 15 -49 l22 -15 -32
-50 c-17 -28 -31 -53 -31 -56 0 -15 41 -24 68 -14 21 7 42 7 68 0 30 -8 41 -8
54 4 22 20 30 19 30 -4 0 -11 5 -23 10 -26 6 -3 10 -16 10 -29 0 -17 -12 -28
-50 -46 -28 -13 -63 -39 -77 -57 -15 -18 -35 -36 -46 -39 -15 -5 -17 -8 -6
-14 15 -10 69 -2 84 11 5 5 24 9 42 9 l33 0 -19 -33 c-10 -18 -40 -45 -69 -62
-53 -30 -70 -53 -29 -40 12 4 36 9 52 12 17 2 37 7 45 10 8 3 31 6 50 7 19 2
44 5 55 9 16 5 24 -1 38 -29 22 -45 22 -49 -8 -109 -13 -27 -25 -60 -25 -71 0
-14 -15 -31 -41 -48 l-41 -27 45 -42 c24 -23 51 -55 60 -72 15 -28 22 -22 17
14 -1 8 10 23 25 35 20 16 28 34 34 78 4 31 13 63 20 72 9 11 10 20 1 36 -34
63 -63 180 -66 264 -3 80 -1 89 17 93 15 4 19 14 19 49 0 24 5 44 10 44 9 0
13 -29 14 -105 1 -20 11 -41 29 -59 20 -20 25 -31 17 -36 -9 -6 -9 -9 -1 -15
9 -5 9 -11 0 -22 -12 -14 -8 -21 21 -35 10 -5 60 -128 60 -146 0 -10 9 -23 20
-30 11 -7 20 -21 20 -32 0 -10 8 -24 18 -29 15 -9 15 -10 1 -11 -24 0 -31 -24
-34 -115 -2 -44 -8 -93 -14 -108 -6 -16 -11 -30 -11 -33 0 -2 122 -4 270 -4
l270 0 0 1200 0 1200 -979 0 -979 0 -29 -45z m604 -391 c-3 -3 -12 -4 -19 -1
-8 3 -5 6 6 6 11 1 17 -2 13 -5z m571 -521 c12 -19 21 -38 18 -40 -6 -7 -128
-34 -133 -30 -14 15 60 108 85 107 4 -1 17 -17 30 -37z m47 -104 c5 -5 10 -19
10 -32 0 -15 6 -22 21 -23 12 -1 26 -4 33 -8 6 -4 27 -2 46 5 32 12 37 11 56
-10 17 -18 20 -31 16 -58 -4 -19 -13 -40 -22 -47 -9 -6 -15 -20 -15 -31 1 -11
3 -51 6 -90 2 -38 -2 -97 -9 -130 -10 -51 -15 -59 -32 -56 -20 3 -20 3 -1 -18
11 -12 14 -21 8 -21 -6 0 -13 4 -16 9 -3 5 -15 7 -26 4 -15 -4 -20 0 -20 13 0
17 -1 16 -15 -2 -13 -17 -14 -17 -15 -1 0 9 -8 17 -17 18 -11 0 -13 3 -5 6 6
2 12 17 12 32 0 28 -9 40 -79 116 -46 50 -59 83 -66 162 -3 43 -12 72 -30 99
-27 40 -23 57 20 75 24 11 126 2 140 -12z m-765 -52 c0 -16 3 -18 12 -9 19 19
25 14 25 -17 0 -25 -5 -30 -34 -36 -72 -13 -94 17 -46 67 29 30 43 29 43 -5z
m200 -7 c0 -5 -7 -10 -15 -10 -8 0 -15 5 -15 10 0 6 7 10 15 10 8 0 15 -4 15
-10z m-719 -335 l-7 -50 -7 49 c-4 27 -7 61 -7 75 l1 26 13 -25 c9 -17 11 -42
7 -75z m1445 -142 c-10 -10 -19 5 -10 18 6 11 8 11 12 0 2 -7 1 -15 -2 -18z
m53 -54 c16 -46 14 -47 -14 -9 -29 40 -29 40 -11 40 8 0 19 -14 25 -31z"/>
<path d="M281 1994 c0 -11 3 -14 6 -6 3 7 2 16 -1 19 -3 4 -6 -2 -5 -13z"/>
<path d="M0 432 l0 -432 155 0 c145 0 155 1 155 19 0 10 -7 21 -15 25 -8 3
-15 13 -15 23 0 10 -9 29 -20 43 -11 14 -20 32 -20 41 0 9 -7 22 -15 29 -9 8
-13 21 -9 32 3 10 3 32 -1 49 -5 22 -11 28 -24 24 -15 -5 -49 20 -50 35 0 9
-12 44 -20 60 -5 9 -5 36 -2 61 9 56 3 76 -29 92 -22 11 -25 19 -25 62 0 28
-5 55 -12 60 -6 6 -14 30 -17 55 -29 239 -36 187 -36 -278z"/>
<path d="M1320 570 c0 -5 5 -10 10 -10 6 0 10 5 10 10 0 6 -4 10 -10 10 -5 0
-10 -4 -10 -10z"/>
<path d="M1165 560 c-18 -8 -17 -9 7 -9 15 -1 30 4 33 9 7 12 -12 12 -40 0z"/>
<path d="M411 454 c0 -11 3 -14 6 -6 3 7 2 16 -1 19 -3 4 -6 -2 -5 -13z"/>
<path d="M1300 191 c0 -5 14 -19 30 -32 17 -13 45 -50 63 -82 32 -57 50 -74
40 -37 -3 11 -9 20 -14 20 -5 0 -9 8 -9 18 0 10 -4 22 -8 28 -5 5 -14 28 -21
52 -11 39 -14 42 -46 42 -19 0 -35 -4 -35 -9z"/>
<path d="M1200 84 c0 -23 36 -84 49 -84 14 0 -10 68 -31 87 -17 15 -18 15 -18
-3z"/>
</g>
</svg>
