<?xml version="1.0" standalone="no"?>
<!DOCTYPE svg PUBLIC "-//W3C//DTD SVG 20010904//EN"
 "http://www.w3.org/TR/2001/REC-SVG-20010904/DTD/svg10.dtd">
<svg version="1.0" xmlns="http://www.w3.org/2000/svg"
 width="50.000000pt" height="50.000000pt" viewBox="0 0 50.000000 50.000000"
 preserveAspectRatio="xMidYMid meet">
<metadata>
Created by potrace 1.14, written by Peter Selinger 2001-2017
</metadata>
<g transform="translate(0.000000,50.000000) scale(0.100000,-0.100000)"
fill="#000000" stroke="none">
<path d="M0 465 c0 -19 2 -35 3 -35 2 0 20 16 40 35 l36 35 -39 0 c-39 0 -40
-1 -40 -35z"/>
<path d="M400 476 c0 -14 -4 -27 -9 -30 -5 -3 -7 -15 -4 -26 6 -21 0 -25 -58
-34 -21 -4 -49 -16 -63 -27 -21 -17 -24 -24 -16 -40 6 -10 18 -19 28 -19 15 0
15 2 2 11 -12 9 -11 10 7 6 12 -3 22 -2 21 2 -3 28 4 51 17 51 18 0 20 -36 3
-43 -9 -4 -10 -6 -1 -6 6 -1 19 7 29 16 17 17 17 16 11 -22 -6 -38 -5 -39 8
-15 8 14 14 35 15 48 0 13 4 21 9 18 10 -6 0 -63 -25 -139 -9 -27 -14 -51 -11
-53 7 -7 78 220 92 294 6 30 5 32 -24 32 -26 0 -31 -4 -31 -24z"/>
<path d="M0 406 c0 -10 16 -17 55 -21 92 -12 77 12 -17 29 -30 5 -38 4 -38 -8z"/>
<path d="M269 400 c-13 -10 -20 -19 -16 -20 12 0 77 28 77 34 0 14 -40 4 -61
-14z"/>
<path d="M0 325 c0 -47 15 -58 50 -35 13 8 13 10 -2 10 -11 0 -15 5 -12 15 8
19 34 20 34 1 0 -22 27 -27 33 -6 7 29 -28 60 -68 60 -35 0 -35 0 -35 -45z"/>
<path d="M76 141 c-3 -4 1 -17 8 -27 13 -17 14 -17 9 9 -6 29 -9 32 -17 18z"/>
<path d="M335 117 c-44 -73 -65 -109 -65 -113 0 -2 29 -4 65 -4 l66 0 -33 40
c-30 38 -31 43 -20 72 16 42 11 44 -13 5z"/>
<path d="M128 83 c7 -3 16 -2 19 1 4 3 -2 6 -13 5 -11 0 -14 -3 -6 -6z"/>
<path d="M30 33 c0 -17 43 -28 93 -25 56 4 64 22 8 22 -21 0 -53 3 -70 6 -17
4 -31 2 -31 -3z"/>
</g>
</svg>
