<?xml version="1.0" standalone="no"?>
<!DOCTYPE svg PUBLIC "-//W3C//DTD SVG 20010904//EN"
 "http://www.w3.org/TR/2001/REC-SVG-20010904/DTD/svg10.dtd">
<svg version="1.0" xmlns="http://www.w3.org/2000/svg"
 width="50.000000pt" height="50.000000pt" viewBox="0 0 50.000000 50.000000"
 preserveAspectRatio="xMidYMid meet">
<metadata>
Created by potrace 1.14, written by Peter Selinger 2001-2017
</metadata>
<g transform="translate(0.000000,50.000000) scale(0.100000,-0.100000)"
fill="#000000" stroke="none">
<path d="M175 441 c-41 -19 -63 -46 -109 -135 -29 -55 -33 -101 -12 -151 18
-42 48 -60 76 -45 19 10 20 8 20 -44 0 -34 -5 -56 -12 -59 -8 -3 -6 -6 4 -6
10 -1 23 5 29 12 8 8 35 12 78 11 45 -2 55 -1 32 4 -44 9 -48 34 -9 56 35 21
58 15 59 -16 1 -15 4 -10 8 12 5 30 9 35 31 32 39 -4 72 37 78 98 4 46 3 50
-14 44 -15 -4 -16 -4 -5 4 12 9 12 15 1 41 -16 40 -33 51 -24 17 4 -18 2 -26
-6 -26 -9 0 -11 11 -6 39 6 38 4 42 -38 75 -29 24 -53 36 -75 36 -17 0 -31 5
-31 10 0 15 -31 12 -75 -9z m-84 -154 c-8 -8 -11 -5 -11 9 0 27 14 41 18 19 2
-9 -1 -22 -7 -28z"/>
</g>
</svg>
