<?xml version="1.0" standalone="no"?>
<!DOCTYPE svg PUBLIC "-//W3C//DTD SVG 20010904//EN"
 "http://www.w3.org/TR/2001/REC-SVG-20010904/DTD/svg10.dtd">
<svg version="1.0" xmlns="http://www.w3.org/2000/svg"
 width="240.000000pt" height="240.000000pt" viewBox="0 0 240.000000 240.000000"
 preserveAspectRatio="xMidYMid meet">
<metadata>
Created by potrace 1.14, written by Peter Selinger 2001-2017
</metadata>
<g transform="translate(0.000000,240.000000) scale(0.100000,-0.100000)"
fill="#000000" stroke="none">
<path d="M0 1681 l0 -719 96 25 c121 30 140 29 136 -12 -5 -43 -30 -67 -63
-60 -15 3 -30 1 -34 -4 -3 -6 -19 -11 -35 -11 -16 0 -32 -4 -35 -10 -3 -5 -19
-10 -36 -10 -28 0 -29 -2 -29 -47 l0 -48 109 -3 c92 -3 109 -1 114 12 8 21 26
20 57 -4 22 -17 23 -22 13 -39 -19 -30 -16 -37 15 -36 25 0 27 -3 24 -36 -2
-34 -1 -36 40 -48 86 -26 98 -44 98 -146 0 -74 30 -197 62 -250 41 -70 68
-126 68 -142 0 -10 5 -35 11 -56 l10 -37 412 0 c327 1 416 3 430 14 9 7 17 15
17 17 0 3 28 34 63 69 50 52 67 78 82 125 28 88 27 90 -18 43 -78 -80 -137
-109 -151 -72 -3 8 -1 24 5 35 7 15 7 24 0 33 -6 8 -8 21 -5 31 4 10 1 21 -7
27 -10 7 -8 8 9 5 18 -4 22 -1 22 20 0 17 16 41 50 74 28 27 50 53 50 59 0 6
7 13 15 16 8 4 15 15 15 25 0 10 5 19 10 19 6 0 10 6 10 13 0 7 8 17 19 24 16
10 20 8 31 -12 26 -49 -5 -355 -45 -451 -9 -21 -20 -55 -24 -75 -8 -36 -8 -36
25 -37 34 -1 34 -1 28 36 -7 47 15 138 26 107 7 -19 8 -18 13 5 9 38 27 342
27 452 l0 97 33 3 c20 2 33 9 33 18 1 8 2 21 3 28 2 22 28 13 40 -15 25 -57
114 -213 119 -208 4 4 -17 66 -59 165 -10 25 -19 41 -19 35 0 -5 -7 5 -15 22
-13 32 -15 116 -2 129 9 10 202 -91 252 -131 44 -36 47 -37 137 -39 51 -2 106
-8 121 -14 l28 -12 -3 83 c-3 79 -4 82 -27 79 -15 -1 -30 7 -43 23 -21 26 -47
32 -65 14 -8 -8 -20 -2 -42 20 -24 24 -40 31 -64 29 -18 -1 -48 6 -67 16 -19
10 -60 20 -90 22 -61 4 -84 22 -71 57 6 16 17 22 37 21 42 -1 256 -59 347 -94
43 -17 81 -30 83 -30 2 0 4 333 4 740 l0 740 -1200 0 -1200 0 0 -719z m1689
425 c-11 -9 -90 -16 -84 -6 3 5 25 10 47 10 23 0 39 -2 37 -4z m-454 -236 c4
-6 10 -8 15 -5 4 3 30 0 56 -6 27 -6 83 -12 124 -13 69 -2 130 -19 130 -36 0
-14 139 -52 156 -42 21 12 51 4 58 -14 4 -11 -1 -13 -22 -9 -15 3 -20 2 -12
-1 29 -13 42 -27 30 -34 -8 -5 -7 -18 4 -45 15 -34 15 -40 1 -55 -17 -19 -13
-39 17 -83 22 -31 30 -91 17 -125 -9 -23 -9 -23 -46 13 -61 59 -109 64 -323
35 -104 -14 -135 -26 -149 -57 -11 -23 -10 -29 5 -40 10 -7 28 -13 41 -13 13
0 26 -7 29 -15 7 -18 47 -20 76 -4 18 9 24 8 35 -7 8 -12 27 -18 53 -19 49 -1
59 -11 34 -31 -16 -13 -17 -15 -1 -10 11 3 17 0 17 -9 0 -23 41 -18 47 5 5 20
22 27 78 32 25 3 30 7 30 28 0 28 12 41 31 33 16 -6 38 -96 29 -122 -3 -12 -3
-31 1 -43 6 -20 7 -21 19 -4 14 18 32 5 20 -14 -4 -6 -1 -18 6 -26 10 -12 8
-19 -7 -37 -28 -32 -54 -83 -47 -91 3 -3 -2 -6 -12 -6 -10 0 -16 -3 -12 -6 3
-3 -7 -19 -23 -35 -15 -16 -30 -43 -34 -59 -3 -17 -12 -30 -19 -30 -19 0 -50
-102 -34 -112 8 -5 7 -8 -5 -8 -10 0 -18 -4 -18 -10 0 -5 -13 -16 -30 -25 -16
-9 -30 -22 -30 -29 0 -7 -19 -29 -42 -49 -24 -19 -59 -61 -78 -92 -53 -87 -98
-133 -154 -159 -73 -33 -110 -38 -159 -21 -23 8 -57 15 -75 15 -38 0 -102 27
-102 42 0 6 -12 21 -26 33 -17 14 -27 36 -31 63 l-6 42 32 -6 c20 -4 31 -2 31
5 0 7 8 8 24 1 13 -5 60 -14 105 -20 74 -10 84 -9 131 11 28 12 55 30 60 40 9
16 4 17 -85 12 -87 -5 -100 -4 -141 18 -25 12 -54 33 -64 46 -10 13 -23 23
-28 23 -6 0 -14 5 -18 11 -5 9 6 10 42 5 27 -4 96 -11 154 -16 58 -5 137 -12
175 -16 61 -6 68 -5 55 8 -19 19 -112 43 -220 58 -47 7 -98 18 -114 26 -16 8
-35 14 -43 14 -14 0 -76 39 -81 53 -2 4 -9 7 -16 7 -13 0 -66 98 -66 123 0 8
-17 50 -39 93 -92 189 -96 199 -95 239 1 22 9 56 18 75 l16 35 -5 -40 -4 -40
17 37 c19 42 44 51 41 16 -5 -52 0 -61 26 -54 14 4 43 1 64 -5 24 -7 54 -9 78
-4 l38 8 -27 9 c-16 5 -28 15 -28 22 0 7 -10 18 -22 24 -21 10 -20 11 15 11
23 1 36 5 32 11 -10 16 8 11 35 -10 14 -11 30 -20 37 -20 7 0 28 -8 47 -17 64
-30 64 -90 -1 -192 -19 -29 -39 -64 -44 -77 -7 -20 -5 -24 12 -24 38 0 73 60
84 145 4 28 16 88 27 134 15 64 17 89 9 107 -7 17 -48 42 -138 85 -144 68
-162 76 -182 81 -10 3 -4 16 22 44 19 22 39 52 42 67 9 33 22 35 28 5 3 -18 5
-16 6 8 0 16 7 39 15 49 13 18 15 18 72 1 33 -10 73 -20 89 -23 l30 -5 -30 17
c-48 26 -52 35 -16 35 29 0 32 2 21 15 -10 13 -9 15 11 16 13 0 38 9 54 19 36
22 42 23 50 10z m292 -556 c-3 -3 -12 -4 -19 -1 -8 3 -5 6 6 6 11 1 17 -2 13
-5z m-1232 -338 c-5 -22 -13 -36 -22 -36 -12 0 -14 7 -9 32 6 28 25 53 34 43
2 -1 0 -19 -3 -39z m605 -246 c0 -5 -2 -10 -4 -10 -3 0 -8 5 -11 10 -3 6 -1
10 4 10 6 0 11 -4 11 -10z"/>
<path d="M1450 1242 c0 -11 47 -22 91 -22 16 0 29 3 29 8 0 4 -17 7 -37 7 -21
0 -48 4 -60 8 -14 5 -23 4 -23 -1z"/>
<path d="M1775 1171 c-3 -5 -1 -12 5 -16 5 -3 10 1 10 9 0 18 -6 21 -15 7z"/>
<path d="M994 1005 c-8 -13 -19 -37 -24 -54 -8 -29 -5 -35 35 -76 40 -42 47
-45 93 -45 29 0 56 6 64 13 23 24 56 37 90 37 42 0 61 12 56 36 -5 30 -50 40
-91 21 -19 -10 -44 -17 -55 -17 -27 0 -67 34 -81 69 -17 39 -66 48 -87 16z"/>
<path d="M157 734 c-21 -14 -36 -28 -34 -31 7 -6 61 22 76 41 20 24 0 19 -42
-10z"/>
<path d="M229 533 c-13 -16 -12 -17 4 -4 9 7 17 15 17 17 0 8 -8 3 -21 -13z"/>
<path d="M175 494 l-30 -25 33 17 c17 10 32 22 32 26 0 12 -2 11 -35 -18z"/>
<path d="M1652 360 c0 -14 2 -19 5 -12 2 6 2 18 0 25 -3 6 -5 1 -5 -13z"/>
<path d="M87 279 c7 -7 15 -10 18 -7 3 3 -2 9 -12 12 -14 6 -15 5 -6 -5z"/>
<path d="M120 251 c0 -6 4 -13 10 -16 6 -3 7 1 4 9 -7 18 -14 21 -14 7z"/>
<path d="M0 70 l0 -70 88 0 87 1 -35 30 c-19 16 -54 44 -77 61 -24 17 -43 35
-43 40 0 4 -4 8 -10 8 -6 0 -10 -30 -10 -70z"/>
<path d="M2285 10 c-3 -5 -2 -10 4 -10 5 0 13 5 16 10 3 6 2 10 -4 10 -5 0
-13 -4 -16 -10z"/>
</g>
</svg>
